<mxfile host="app.diagrams.net" modified="2022-04-13T00:45:01.813Z" agent="5.0 (Windows NT 10.0; Win64; x64) AppleWebKit/537.36 (KHTML, like Gecko) Chrome/100.0.4896.75 Safari/537.36" etag="AaHTYI2RV_NZoUopOIfI" version="17.4.3" type="github">
  <diagram id="F4QLGc9wct3AqZtMxQmj" name="Page-1">
    <mxGraphModel dx="599" dy="339" grid="1" gridSize="10" guides="1" tooltips="1" connect="1" arrows="1" fold="1" page="1" pageScale="1" pageWidth="827" pageHeight="1169" math="0" shadow="0">
      <root>
        <mxCell id="0" />
        <mxCell id="1" parent="0" />
        <mxCell id="mF6jqjErhzN6eNfQrWpt-1" value="Cliente" style="swimlane;fontStyle=1;align=center;verticalAlign=top;childLayout=stackLayout;horizontal=1;startSize=26;horizontalStack=0;resizeParent=1;resizeParentMax=0;resizeLast=0;collapsible=1;marginBottom=0;" vertex="1" parent="1">
          <mxGeometry x="20" y="30" width="160" height="250" as="geometry" />
        </mxCell>
        <mxCell id="mF6jqjErhzN6eNfQrWpt-2" value="+ Login: String;&#xa;+ Nome: String;&#xa;+ Sobrenome: String;&#xa;+ CPF: String;&#xa;+ Dtnasc: Date;&#xa;+ Senha: String;&#xa;+ Pag: String;" style="text;strokeColor=none;fillColor=none;align=left;verticalAlign=top;spacingLeft=4;spacingRight=4;overflow=hidden;rotatable=0;points=[[0,0.5],[1,0.5]];portConstraint=eastwest;" vertex="1" parent="mF6jqjErhzN6eNfQrWpt-1">
          <mxGeometry y="26" width="160" height="114" as="geometry" />
        </mxCell>
        <mxCell id="mF6jqjErhzN6eNfQrWpt-3" value="" style="line;strokeWidth=1;fillColor=none;align=left;verticalAlign=middle;spacingTop=-1;spacingLeft=3;spacingRight=3;rotatable=0;labelPosition=right;points=[];portConstraint=eastwest;" vertex="1" parent="mF6jqjErhzN6eNfQrWpt-1">
          <mxGeometry y="140" width="160" height="10" as="geometry" />
        </mxCell>
        <mxCell id="mF6jqjErhzN6eNfQrWpt-4" value="cadastro: boolean;&#xa;alteraremail: String;&#xa;recuperarsenha: String;&#xa;cancelarassinatura: boolean;&#xa;alterarpagamento: String;&#xa;" style="text;strokeColor=none;fillColor=none;align=left;verticalAlign=top;spacingLeft=4;spacingRight=4;overflow=hidden;rotatable=0;points=[[0,0.5],[1,0.5]];portConstraint=eastwest;" vertex="1" parent="mF6jqjErhzN6eNfQrWpt-1">
          <mxGeometry y="150" width="160" height="100" as="geometry" />
        </mxCell>
        <mxCell id="mF6jqjErhzN6eNfQrWpt-6" value="VÃ­deos" style="swimlane;fontStyle=1;align=center;verticalAlign=top;childLayout=stackLayout;horizontal=1;startSize=26;horizontalStack=0;resizeParent=1;resizeParentMax=0;resizeLast=0;collapsible=1;marginBottom=0;" vertex="1" parent="1">
          <mxGeometry x="390" y="30" width="160" height="200" as="geometry" />
        </mxCell>
        <mxCell id="mF6jqjErhzN6eNfQrWpt-7" value="+ Nome: String;&#xa;+ Dtlanc: Date;&#xa;+ Diretor: String;&#xa;+ Genero: String;&#xa;+ Atores: String;" style="text;strokeColor=none;fillColor=none;align=left;verticalAlign=top;spacingLeft=4;spacingRight=4;overflow=hidden;rotatable=0;points=[[0,0.5],[1,0.5]];portConstraint=eastwest;" vertex="1" parent="mF6jqjErhzN6eNfQrWpt-6">
          <mxGeometry y="26" width="160" height="114" as="geometry" />
        </mxCell>
        <mxCell id="mF6jqjErhzN6eNfQrWpt-8" value="" style="line;strokeWidth=1;fillColor=none;align=left;verticalAlign=middle;spacingTop=-1;spacingLeft=3;spacingRight=3;rotatable=0;labelPosition=right;points=[];portConstraint=eastwest;" vertex="1" parent="mF6jqjErhzN6eNfQrWpt-6">
          <mxGeometry y="140" width="160" height="8" as="geometry" />
        </mxCell>
        <mxCell id="mF6jqjErhzN6eNfQrWpt-9" value="incluirvideos: String;&#xa;excluirvideos: String;" style="text;strokeColor=none;fillColor=none;align=left;verticalAlign=top;spacingLeft=4;spacingRight=4;overflow=hidden;rotatable=0;points=[[0,0.5],[1,0.5]];portConstraint=eastwest;" vertex="1" parent="mF6jqjErhzN6eNfQrWpt-6">
          <mxGeometry y="148" width="160" height="52" as="geometry" />
        </mxCell>
        <mxCell id="mF6jqjErhzN6eNfQrWpt-14" value="Extends" style="endArrow=block;endSize=16;endFill=0;html=1;rounded=0;entryX=-0.013;entryY=0.721;entryDx=0;entryDy=0;entryPerimeter=0;exitX=0.452;exitY=-0.016;exitDx=0;exitDy=0;exitPerimeter=0;" edge="1" parent="1" source="mF6jqjErhzN6eNfQrWpt-15" target="mF6jqjErhzN6eNfQrWpt-9">
          <mxGeometry width="160" relative="1" as="geometry">
            <mxPoint x="290" y="280" as="sourcePoint" />
            <mxPoint x="450" y="280" as="targetPoint" />
          </mxGeometry>
        </mxCell>
        <mxCell id="mF6jqjErhzN6eNfQrWpt-15" value="Filmes" style="swimlane;fontStyle=1;align=center;verticalAlign=top;childLayout=stackLayout;horizontal=1;startSize=26;horizontalStack=0;resizeParent=1;resizeParentMax=0;resizeLast=0;collapsible=1;marginBottom=0;" vertex="1" parent="1">
          <mxGeometry x="210" y="240" width="160" height="86" as="geometry" />
        </mxCell>
        <mxCell id="mF6jqjErhzN6eNfQrWpt-16" value="+ : ;" style="text;strokeColor=none;fillColor=none;align=left;verticalAlign=top;spacingLeft=4;spacingRight=4;overflow=hidden;rotatable=0;points=[[0,0.5],[1,0.5]];portConstraint=eastwest;" vertex="1" parent="mF6jqjErhzN6eNfQrWpt-15">
          <mxGeometry y="26" width="160" height="26" as="geometry" />
        </mxCell>
        <mxCell id="mF6jqjErhzN6eNfQrWpt-17" value="" style="line;strokeWidth=1;fillColor=none;align=left;verticalAlign=middle;spacingTop=-1;spacingLeft=3;spacingRight=3;rotatable=0;labelPosition=right;points=[];portConstraint=eastwest;" vertex="1" parent="mF6jqjErhzN6eNfQrWpt-15">
          <mxGeometry y="52" width="160" height="8" as="geometry" />
        </mxCell>
        <mxCell id="mF6jqjErhzN6eNfQrWpt-18" value="+ method(type): type" style="text;strokeColor=none;fillColor=none;align=left;verticalAlign=top;spacingLeft=4;spacingRight=4;overflow=hidden;rotatable=0;points=[[0,0.5],[1,0.5]];portConstraint=eastwest;" vertex="1" parent="mF6jqjErhzN6eNfQrWpt-15">
          <mxGeometry y="60" width="160" height="26" as="geometry" />
        </mxCell>
        <mxCell id="mF6jqjErhzN6eNfQrWpt-19" value="Documentarios" style="swimlane;fontStyle=1;align=center;verticalAlign=top;childLayout=stackLayout;horizontal=1;startSize=26;horizontalStack=0;resizeParent=1;resizeParentMax=0;resizeLast=0;collapsible=1;marginBottom=0;" vertex="1" parent="1">
          <mxGeometry x="390" y="260" width="160" height="86" as="geometry" />
        </mxCell>
        <mxCell id="mF6jqjErhzN6eNfQrWpt-20" value="+ field: type" style="text;strokeColor=none;fillColor=none;align=left;verticalAlign=top;spacingLeft=4;spacingRight=4;overflow=hidden;rotatable=0;points=[[0,0.5],[1,0.5]];portConstraint=eastwest;" vertex="1" parent="mF6jqjErhzN6eNfQrWpt-19">
          <mxGeometry y="26" width="160" height="26" as="geometry" />
        </mxCell>
        <mxCell id="mF6jqjErhzN6eNfQrWpt-21" value="" style="line;strokeWidth=1;fillColor=none;align=left;verticalAlign=middle;spacingTop=-1;spacingLeft=3;spacingRight=3;rotatable=0;labelPosition=right;points=[];portConstraint=eastwest;" vertex="1" parent="mF6jqjErhzN6eNfQrWpt-19">
          <mxGeometry y="52" width="160" height="8" as="geometry" />
        </mxCell>
        <mxCell id="mF6jqjErhzN6eNfQrWpt-22" value="+ method(type): type" style="text;strokeColor=none;fillColor=none;align=left;verticalAlign=top;spacingLeft=4;spacingRight=4;overflow=hidden;rotatable=0;points=[[0,0.5],[1,0.5]];portConstraint=eastwest;" vertex="1" parent="mF6jqjErhzN6eNfQrWpt-19">
          <mxGeometry y="60" width="160" height="26" as="geometry" />
        </mxCell>
        <mxCell id="mF6jqjErhzN6eNfQrWpt-23" value="Classname" style="swimlane;fontStyle=1;align=center;verticalAlign=top;childLayout=stackLayout;horizontal=1;startSize=26;horizontalStack=0;resizeParent=1;resizeParentMax=0;resizeLast=0;collapsible=1;marginBottom=0;" vertex="1" parent="1">
          <mxGeometry x="580" y="230" width="160" height="86" as="geometry" />
        </mxCell>
        <mxCell id="mF6jqjErhzN6eNfQrWpt-24" value="+ field: type" style="text;strokeColor=none;fillColor=none;align=left;verticalAlign=top;spacingLeft=4;spacingRight=4;overflow=hidden;rotatable=0;points=[[0,0.5],[1,0.5]];portConstraint=eastwest;" vertex="1" parent="mF6jqjErhzN6eNfQrWpt-23">
          <mxGeometry y="26" width="160" height="26" as="geometry" />
        </mxCell>
        <mxCell id="mF6jqjErhzN6eNfQrWpt-25" value="" style="line;strokeWidth=1;fillColor=none;align=left;verticalAlign=middle;spacingTop=-1;spacingLeft=3;spacingRight=3;rotatable=0;labelPosition=right;points=[];portConstraint=eastwest;" vertex="1" parent="mF6jqjErhzN6eNfQrWpt-23">
          <mxGeometry y="52" width="160" height="8" as="geometry" />
        </mxCell>
        <mxCell id="mF6jqjErhzN6eNfQrWpt-26" value="+ method(type): type" style="text;strokeColor=none;fillColor=none;align=left;verticalAlign=top;spacingLeft=4;spacingRight=4;overflow=hidden;rotatable=0;points=[[0,0.5],[1,0.5]];portConstraint=eastwest;" vertex="1" parent="mF6jqjErhzN6eNfQrWpt-23">
          <mxGeometry y="60" width="160" height="26" as="geometry" />
        </mxCell>
        <mxCell id="mF6jqjErhzN6eNfQrWpt-27" value="Extends" style="endArrow=block;endSize=16;endFill=0;html=1;rounded=0;entryX=0.991;entryY=0.254;entryDx=0;entryDy=0;entryPerimeter=0;exitX=0.123;exitY=-0.008;exitDx=0;exitDy=0;exitPerimeter=0;" edge="1" parent="1" source="mF6jqjErhzN6eNfQrWpt-23" target="mF6jqjErhzN6eNfQrWpt-8">
          <mxGeometry width="160" relative="1" as="geometry">
            <mxPoint x="530" y="203.13400000000001" as="sourcePoint" />
            <mxPoint x="635.5999999999999" y="180.00199999999995" as="targetPoint" />
          </mxGeometry>
        </mxCell>
        <mxCell id="mF6jqjErhzN6eNfQrWpt-28" value="Extends" style="endArrow=block;endSize=16;endFill=0;html=1;rounded=0;entryX=-0.013;entryY=0.721;entryDx=0;entryDy=0;entryPerimeter=0;" edge="1" parent="1" source="mF6jqjErhzN6eNfQrWpt-19">
          <mxGeometry width="160" relative="1" as="geometry">
            <mxPoint x="390.00000000000006" y="253.13400000000001" as="sourcePoint" />
            <mxPoint x="495.59999999999997" y="230.00199999999995" as="targetPoint" />
          </mxGeometry>
        </mxCell>
      </root>
    </mxGraphModel>
  </diagram>
</mxfile>
